<svg width="300" height="300" viewBox="0 0 300 300" fill="none" xmlns="http://www.w3.org/2000/svg">
<path d="M250.763 49.2375C224.978 23.4525 189.353 7.5 150 7.5V150L250.763 49.2375Z" fill="#B53838"/>
<path d="M292.5 150C292.5 113.527 278.588 77.0622 250.763 49.2372L150 150H292.5Z" fill="#B86E3E"/>
<path d="M250.763 250.763C276.548 224.978 292.5 189.353 292.5 150H150L250.763 250.763Z" fill="#B88F28"/>
<path d="M150 292.5C186.472 292.5 222.938 278.588 250.763 250.763L150 150V292.5Z" fill="#51966C"/>
<path d="M49.2372 250.763C75.0222 276.548 110.647 292.5 150 292.5V150L49.2372 250.763Z" fill="#5682BA"/>
<path d="M7.5 150C7.5 186.472 21.4125 222.938 49.2375 250.763L150 150H7.5Z" fill="#4965A8"/>
<path d="M49.2375 49.2372C23.4525 75.0222 7.5 110.647 7.5 150H150L49.2375 49.2372Z" fill="#7E5D9E"/>
<path d="M150 7.5C113.527 7.5 77.0622 21.4125 49.2372 49.2375L150 150V7.5Z" fill="#914683"/>
<path d="M245.46 54.54C221.032 30.1125 187.282 15 150 15V150L245.46 54.54Z" fill="#EBA9A9"/>
<path d="M285 150C285 115.447 271.823 80.9023 245.46 54.5399L150 150H285Z" fill="#F0B48E"/>
<path d="M245.46 245.46C269.888 221.032 285 187.282 285 150H150L245.46 245.46Z" fill="#F2E5A9"/>
<path d="M150 285C184.552 285 219.097 271.823 245.46 245.46L150 150V285Z" fill="#B6D6B9"/>
<path d="M54.5398 245.46C78.9673 269.888 112.717 285 150 285V150L54.5398 245.46Z" fill="#ACCAF2"/>
<path d="M15 150C15 184.552 28.1775 219.097 54.54 245.46L150 150H15Z" fill="#A4B3F5"/>
<path d="M54.54 54.5399C30.1125 78.9673 15 112.717 15 150H150L54.54 54.5399Z" fill="#CF9FED"/>
<path d="M150 15C115.447 15 80.9023 28.1775 54.5398 54.54L150 150V15Z" fill="#DD98E0"/>
</svg>
